<?xml version="1.0" standalone="no"?>
<!DOCTYPE svg PUBLIC "-//W3C//DTD SVG 20010904//EN"
 "http://www.w3.org/TR/2001/REC-SVG-20010904/DTD/svg10.dtd">
<svg version="1.0" xmlns="http://www.w3.org/2000/svg"
 width="1000.000000pt" height="1000.000000pt" viewBox="0 0 1000.000000 1000.000000"
 preserveAspectRatio="xMidYMid meet">
<metadata>
Created by potrace 1.11, written by Peter Selinger 2001-2013
</metadata>
<g transform="translate(0.000000,1000.000000) scale(0.100000,-0.100000)"
fill="#000000" stroke="none">
<path d="M1638 8805 c-354 -56 -570 -274 -544 -552 5 -63 41 -163 57 -163 5 0
27 11 47 24 67 42 131 59 242 64 177 7 288 -34 400 -147 99 -100 144 -209 156
-381 11 -150 -44 -289 -176 -446 l-68 -81 45 -54 c61 -74 147 -253 179 -374
54 -203 56 -229 61 -732 l5 -473 -38 16 c-48 20 -126 14 -162 -13 -39 -28 -69
-77 -77 -122 l-6 -39 -37 9 c-101 23 -254 4 -350 -45 -123 -62 -206 -226 -182
-356 15 -79 13 -78 103 -82 66 -2 93 -9 139 -32 233 -118 406 -414 485 -831
20 -109 29 -511 14 -630 -43 -325 -173 -547 -476 -811 -202 -175 -305 -288
-350 -385 -36 -78 -32 -130 13 -181 14 -16 17 -16 51 11 77 61 198 108 301
117 86 8 246 -10 381 -44 l107 -27 6 46 c8 56 52 121 98 145 45 24 124 23 172
0 23 -12 50 -38 68 -65 26 -40 29 -53 26 -106 -3 -44 -10 -70 -27 -94 -13 -17
-22 -33 -20 -35 2 -1 76 -31 164 -65 88 -35 302 -124 475 -199 557 -238 752
-317 995 -404 552 -196 942 -278 1325 -278 182 0 294 10 445 41 574 116 961
495 1050 1028 25 149 16 386 -19 530 -60 240 -165 431 -321 585 -143 141 -329
237 -520 271 -170 29 -434 14 -600 -36 -105 -31 -255 -99 -255 -115 0 -63 236
-552 279 -578 4 -3 34 13 67 35 95 64 197 92 334 93 95 0 126 -3 180 -22 200
-69 351 -242 426 -487 25 -81 28 -106 28 -245 1 -181 -10 -235 -79 -375 -99
-203 -269 -343 -510 -419 -116 -36 -182 -47 -341 -53 -447 -18 -906 105 -1318
356 -185 112 -445 333 -567 481 -104 127 -189 272 -230 395 -20 58 -24 90 -24
191 0 118 1 121 37 195 20 40 46 84 58 97 12 12 20 27 18 31 -2 5 -27 27 -55
50 -154 121 -284 380 -342 684 -41 211 -43 300 -38 1512 5 1220 4 1212 50
1405 37 155 117 333 192 424 25 31 45 59 45 62 0 3 -23 31 -50 61 -68 74 -104
128 -148 221 -34 72 -37 84 -40 187 -10 297 133 505 389 571 127 32 328 5 411
-56 15 -11 32 -20 38 -20 24 0 54 94 58 182 17 329 -278 547 -740 548 -144 0
-289 -36 -430 -107 -38 -18 -68 -35 -68 -37 0 -2 7 -20 15 -39 59 -141 -93
-300 -231 -242 -104 43 -154 158 -108 247 18 35 19 33 -58 73 -175 92 -406
124 -630 90z"/>
<path d="M8166 8809 c-2 -8 -6 -41 -9 -75 -11 -143 -111 -241 -286 -281 -51
-12 -180 -17 -576 -23 -565 -9 -738 -23 -1035 -81 -479 -94 -913 -284 -1282
-561 -393 -296 -687 -657 -929 -1139 -134 -269 -229 -531 -323 -899 -105 -411
-206 -662 -344 -860 l-39 -55 52 -65 c152 -191 306 -513 495 -1035 105 -290
271 -611 430 -835 429 -602 997 -957 1673 -1045 65 -8 155 -15 201 -15 l83 0
12 53 c7 28 15 93 18 143 l6 91 -114 6 c-626 34 -1075 545 -1314 1497 -75 296
-123 610 -157 1010 -17 207 -17 846 0 1005 76 701 266 1235 596 1675 72 97
287 321 386 402 135 111 336 228 520 301 369 148 765 152 1064 13 205 -96 371
-293 432 -514 29 -105 33 -273 9 -367 -69 -269 -270 -440 -556 -474 -151 -19
-299 3 -413 61 -172 87 -273 281 -234 449 9 35 19 72 23 82 6 15 0 17 -52 17
-75 0 -159 -22 -250 -65 -250 -118 -360 -418 -247 -674 137 -309 572 -441
1092 -331 544 115 983 482 1270 1062 40 79 72 150 72 156 0 7 -12 12 -26 12
-15 0 -43 9 -63 21 -136 79 -130 260 12 328 54 26 90 26 146 1 24 -11 47 -20
51 -20 10 0 55 187 75 315 20 125 20 294 0 380 -32 139 -125 259 -242 312 -69
32 -219 46 -227 22z"/>
<path d="M8755 8653 c108 -103 159 -218 171 -384 10 -133 -24 -369 -81 -572
-26 -89 -26 -107 1 -107 18 0 26 20 63 173 59 238 76 451 47 588 -15 70 -63
176 -90 198 -9 8 -16 19 -16 26 0 8 -19 30 -42 50 -54 46 -95 68 -53 28z"/>
<path d="M4015 8555 c108 -108 163 -251 151 -392 -7 -86 -29 -147 -68 -189
-29 -31 -28 -44 3 -44 21 0 64 50 85 99 22 51 30 186 14 252 -30 125 -99 227
-205 305 -32 23 -28 17 20 -31z"/>
<path d="M2612 8558 c-12 -19 -25 -51 -28 -69 l-7 -34 26 24 c26 23 44 76 35
102 -2 7 -14 -3 -26 -23z"/>
<path d="M1594 8038 c-55 -10 -175 -67 -182 -86 -8 -25 29 -24 64 3 55 42 130
67 222 73 51 3 78 8 70 13 -17 11 -108 9 -174 -3z"/>
<path d="M3660 8040 c-97 -15 -189 -63 -258 -131 -112 -112 -170 -347 -127
-514 22 -84 99 -207 181 -291 63 -64 70 -75 56 -86 -8 -7 -37 -42 -63 -78 -27
-36 -52 -69 -57 -75 -20 -25 -94 -211 -112 -282 -56 -217 -53 -139 -57 -1468
-4 -1342 -4 -1347 53 -1577 34 -135 45 -168 92 -269 66 -145 155 -261 242
-319 31 -21 29 -18 -13 25 -81 81 -113 126 -165 230 -83 166 -131 338 -157
560 -13 109 -15 312 -15 1255 0 1156 3 1266 41 1453 35 176 121 379 197 463
14 16 34 39 45 51 l19 22 -81 92 c-90 102 -154 217 -172 309 -22 116 17 317
80 410 40 60 95 115 144 143 61 36 171 67 234 67 33 0 52 4 48 10 -7 11 -86
11 -155 0z"/>
<path d="M6865 7993 c-204 -25 -414 -98 -640 -220 -113 -61 -291 -199 -410
-318 -289 -289 -512 -665 -644 -1085 -66 -210 -68 -216 -100 -375 -66 -328
-91 -620 -85 -1005 8 -569 73 -1082 194 -1530 8 -29 15 -38 26 -33 10 4 14 14
11 27 -2 12 -16 71 -30 131 -98 416 -145 835 -154 1355 -6 359 1 502 33 750
102 785 431 1456 911 1860 362 303 783 457 1198 438 70 -4 95 -3 70 3 -39 8
-321 10 -380 2z"/>
<path d="M7298 7973 c7 -3 16 -2 19 1 4 3 -2 6 -13 5 -11 0 -14 -3 -6 -6z"/>
<path d="M8614 7670 c-12 -5 -35 -26 -53 -47 -27 -33 -31 -44 -29 -87 2 -36 8
-52 23 -62 19 -13 20 -11 17 30 -5 55 21 113 60 135 15 9 28 19 28 22 0 12
-25 16 -46 9z"/>
<path d="M8727 7358 c-24 -65 -147 -308 -203 -399 -105 -172 -300 -402 -429
-508 -181 -149 -411 -272 -615 -330 -186 -53 -277 -65 -482 -66 -126 0 -181
-3 -170 -10 10 -5 97 -9 197 -9 243 1 417 32 625 114 445 173 790 511 1039
1017 92 188 98 203 80 214 -23 14 -30 11 -42 -23z"/>
<path d="M6851 7200 c-51 -70 -65 -179 -35 -280 22 -74 85 -169 128 -192 14
-8 10 1 -12 30 -99 125 -119 302 -45 413 22 34 24 42 12 50 -21 13 -23 12 -48
-21z"/>
<path d="M6278 5870 c-179 -21 -345 -76 -488 -163 -98 -60 -228 -184 -289
-275 -285 -426 -238 -1021 107 -1343 173 -161 410 -236 666 -209 304 31 503
154 615 378 55 111 75 196 74 327 -1 369 -238 632 -548 612 -105 -7 -186 -38
-247 -95 -40 -37 -52 -57 -69 -114 -22 -70 -21 -132 3 -183 10 -21 11 -22 51
-7 56 20 144 20 182 0 152 -81 188 -316 71 -456 -80 -93 -246 -134 -391 -96
-204 53 -357 239 -411 501 -23 107 -15 291 16 388 87 275 297 454 596 511 69
12 126 15 249 11 140 -4 170 -8 240 -31 317 -107 525 -363 630 -774 54 -213
57 -262 62 -792 l5 -495 -86 4 c-74 3 -92 0 -139 -22 -61 -28 -92 -65 -106
-128 -8 -37 -7 -45 6 -53 41 -23 103 -91 131 -144 43 -81 62 -161 62 -262 0
-115 -21 -203 -73 -313 -74 -156 -186 -277 -349 -376 l-63 -38 -7 -88 c-4 -48
-17 -126 -28 -173 -11 -47 -18 -87 -16 -89 14 -14 329 65 509 127 177 61 373
162 416 214 17 21 31 20 31 0 0 -33 65 -137 127 -204 129 -139 268 -202 453
-203 183 -2 312 57 379 174 32 56 57 155 48 191 -6 22 -11 23 -84 23 -60 0
-87 5 -118 22 -93 50 -155 156 -163 280 -6 90 12 206 45 295 l25 67 -31 63
c-17 35 -41 99 -53 143 -23 79 -23 85 -23 755 0 667 0 676 23 779 30 134 68
218 132 285 62 65 130 97 222 104 l67 5 7 44 c24 159 -48 303 -180 361 -105
47 -283 54 -421 17 -143 -39 -293 -140 -311 -209 -6 -25 -24 -37 -24 -16 0 5
-25 47 -56 92 -61 90 -186 219 -274 284 -191 142 -446 240 -717 278 -138 19
-385 27 -485 16z"/>
<path d="M7710 5530 c14 -11 41 -31 60 -44 20 -13 58 -47 85 -75 27 -28 53
-51 59 -51 17 0 -55 70 -129 124 -76 57 -115 81 -75 46z"/>
<path d="M6476 5514 c-174 -32 -308 -97 -412 -200 -190 -189 -252 -482 -159
-755 32 -92 92 -195 147 -248 43 -42 76 -58 37 -18 -36 37 -107 151 -129 207
-50 126 -66 338 -35 468 61 258 247 445 509 512 95 24 264 41 349 35 57 -4 59
-4 17 5 -68 13 -235 10 -324 -6z"/>
<path d="M8924 5274 c81 -81 122 -226 96 -337 -7 -29 -17 -58 -23 -64 -6 -8
-35 -13 -77 -13 -183 0 -287 -123 -334 -396 -14 -77 -16 -193 -16 -725 0 -397
3 -655 10 -689 20 -106 49 -184 88 -238 22 -30 22 -35 9 -55 -8 -13 -27 -61
-41 -107 -36 -114 -39 -258 -7 -342 13 -33 29 -58 37 -58 17 0 17 5 -1 55 -32
89 -12 289 40 402 22 50 24 58 11 72 -21 23 -62 118 -83 193 -17 58 -18 118
-18 738 0 711 2 741 47 880 21 66 78 165 107 187 58 44 115 65 193 71 l82 7
13 50 c35 135 -9 277 -111 365 -49 43 -63 45 -22 4z"/>
<path d="M7048 4989 c134 -139 201 -332 189 -548 -8 -157 -59 -299 -148 -412
-16 -20 -25 -40 -21 -44 4 -5 2 -5 -4 -2 -6 3 -26 -10 -45 -29 -121 -125 -325
-201 -579 -214 -107 -5 -121 -8 -65 -10 218 -10 373 18 535 98 100 49 229 177
282 277 63 122 80 185 85 330 5 111 2 143 -16 215 -37 151 -125 293 -225 364
-40 29 -40 29 12 -25z"/>
<path d="M1486 4721 c-7 -11 22 -23 35 -15 5 3 7 10 4 15 -8 12 -32 12 -39 0z"/>
<path d="M6375 4653 l-29 -16 24 -9 c27 -10 54 9 42 29 -5 8 -15 7 -37 -4z"/>
<path d="M6268 3743 c6 -2 18 -2 25 0 6 3 1 5 -13 5 -14 0 -19 -2 -12 -5z"/>
<path d="M6650 3110 c118 -118 196 -227 258 -367 39 -87 92 -253 92 -289 0
-13 3 -14 15 -4 21 18 19 36 -19 152 -73 222 -219 434 -390 566 -53 41 -47 33
44 -58z"/>
<path d="M3647 2866 c-86 -93 -129 -239 -109 -364 36 -214 140 -391 362 -613
74 -74 160 -152 190 -172 30 -21 39 -25 20 -10 -64 51 -286 277 -327 333 -137
185 -203 350 -203 507 0 120 30 203 108 300 30 38 32 42 15 51 -14 7 -26 0
-56 -32z"/>
<path d="M5780 2692 c-61 -16 -192 -81 -205 -102 -16 -26 205 -258 315 -329
28 -18 26 -15 -10 15 -96 82 -155 142 -212 213 -70 87 -69 88 45 145 76 37
133 53 244 66 l68 7 -90 1 c-55 1 -115 -6 -155 -16z"/>
<path d="M4550 2458 c0 -249 80 -451 238 -599 117 -110 263 -169 422 -169 74
0 140 14 140 29 0 4 -18 17 -39 29 -89 50 -172 176 -208 313 -17 69 -20 73
-72 106 -131 84 -284 207 -418 337 l-63 60 0 -106z"/>
<path d="M8967 2091 c11 -132 -48 -257 -157 -330 -81 -54 -141 -71 -268 -80
l-107 -7 70 -7 c201 -22 396 67 471 214 22 45 47 157 39 182 -2 7 -6 24 -9 39
-4 15 -15 32 -25 37 -17 10 -18 7 -14 -48z"/>
<path d="M2267 2062 c-17 -19 -37 -102 -24 -102 14 0 48 72 45 96 -3 26 -3 26
-21 6z"/>
<path d="M7710 1967 c-54 -31 -222 -97 -310 -122 -25 -8 -77 -23 -116 -34 -39
-11 -126 -31 -194 -45 -68 -14 -127 -29 -131 -33 -4 -4 -19 -36 -33 -70 -25
-59 -83 -171 -108 -207 -195 -281 -499 -475 -875 -556 -200 -43 -457 -59 -648
-41 -49 5 -119 12 -155 15 -58 4 -56 3 25 -11 138 -24 586 -24 720 1 401 73
694 229 904 483 62 75 153 229 191 323 l22 55 121 24 c206 40 434 111 610 191
57 26 67 33 57 45 -15 19 -14 19 -80 -18z"/>
<path d="M1628 1969 c-61 -14 -161 -63 -201 -98 -42 -38 -45 -47 -17 -56 14
-5 27 3 49 27 32 36 128 88 201 109 25 6 88 15 140 19 l95 7 -115 0 c-63 1
-132 -3 -152 -8z"/>
<path d="M1913 1963 c9 -2 25 -2 35 0 9 3 1 5 -18 5 -19 0 -27 -2 -17 -5z"/>
<path d="M5380 1960 c0 -6 15 -44 33 -83 32 -70 136 -197 160 -197 6 0 -5 17
-24 38 -54 56 -79 97 -110 176 -16 41 -34 72 -43 74 -9 2 -16 -2 -16 -8z"/>
<path d="M2038 1943 c7 -3 16 -2 19 1 4 3 -2 6 -13 5 -11 0 -14 -3 -6 -6z"/>
<path d="M6163 1723 c9 -2 23 -2 30 0 6 3 -1 5 -18 5 -16 0 -22 -2 -12 -5z"/>
<path d="M8398 1683 c7 -3 16 -2 19 1 4 3 -2 6 -13 5 -11 0 -14 -3 -6 -6z"/>
<path d="M4165 1661 c19 -22 55 -46 55 -38 0 3 -17 17 -37 33 -31 23 -34 24
-18 5z"/>
<path d="M5636 1614 c-3 -8 -27 -25 -53 -36 -38 -17 -67 -22 -143 -22 -75 0
-86 -1 -50 -7 65 -11 170 -10 210 1 46 13 97 59 78 71 -20 13 -35 11 -42 -7z"/>
<path d="M4240 1606 c0 -2 14 -14 30 -26 17 -12 30 -19 30 -16 0 2 -13 14 -30
26 -16 12 -30 19 -30 16z"/>
<path d="M4838 923 c7 -3 16 -2 19 1 4 3 -2 6 -13 5 -11 0 -14 -3 -6 -6z"/>
<path d="M4928 903 c7 -3 16 -2 19 1 4 3 -2 6 -13 5 -11 0 -14 -3 -6 -6z"/>
<path d="M4988 893 c7 -3 16 -2 19 1 4 3 -2 6 -13 5 -11 0 -14 -3 -6 -6z"/>
<path d="M5033 883 c9 -2 23 -2 30 0 6 3 -1 5 -18 5 -16 0 -22 -2 -12 -5z"/>
</g>
</svg>
