<svg xmlns="http://www.w3.org/2000/svg" viewBox="0 0 92.43 94.41">
  <path d="M55.47,64.64a15.5,15.5,0,0,0-8,2l.19.54.15.41.27.69.13.32q.2.49.41,1l0,0q.2.45.42.89l.16.31.29.57.19.35.27.49.21.35.27.45.23.35.2.3A7.57,7.57,0,0,1,55.8,72c4.53,0,7.28,4.22,7.64,8.28h0l0,.24a10.57,10.57,0,0,1-.49,4l-.06.17h0c-1.52,4.33-5.67,6.81-11.43,6.81a29,29,0,0,1-19-7c-3.76-3.11-6.11-6.78-6.28-9.83a5.82,5.82,0,0,1,1.51-4.32c-3-1.77-5-6.54-5.31-12.58V31.95c0-7.07,2.31-10.33,3.5-11.54-1.49-1.4-3-3.57-3-5.65,0-4.43,2.42-6.07,3.87-6.66a6.67,6.67,0,0,1,6.34.67,4.39,4.39,0,0,0,.52-4C33.06,3,31.17,0,24.56,0a11.67,11.67,0,0,0-5.64,1.74A2.24,2.24,0,0,1,19.3,3,2.3,2.3,0,0,1,14.7,3a2.24,2.24,0,0,1,.36-1.22A11.62,11.62,0,0,0,9.39,0C2.79,0,.9,3,.36,4.75a4.39,4.39,0,0,0,.52,4,6.66,6.66,0,0,1,6.34-.67c1.45.59,3.87,2.23,3.87,6.66,0,2.09-1.58,4.3-3,5.65,1.19,1.21,3.5,4.47,3.5,11.54v8.32l-.37-.2a2,2,0,0,0-1-.25,2,2,0,0,0-2,2v.31l-.3-.07a7.29,7.29,0,0,0-1.59-.19c-3.92,0-4.81,2.67-5,3.48a2.67,2.67,0,0,0,.38,2.41,3.38,3.38,0,0,1,2.95.57c2.77,1.72,5.73,6.36,5.73,14.25,0,4.27-.45,8.47-5.82,13C1.44,78.17-.07,80.09,0,81.39a1.51,1.51,0,0,0,.63,1.13A7,7,0,0,1,5.2,80.74a19.8,19.8,0,0,1,5.35.91,2,2,0,0,1,0-.28A2.3,2.3,0,1,1,14.47,83c2.61,1,5.41,2.18,8.38,3.46,8.7,3.74,18.57,8,27.28,8s15.16-3.83,17.4-10.51a15.8,15.8,0,0,0-3.35-15.62A11.92,11.92,0,0,0,55.47,64.64Z"/>
  <path d="M44.12,83.35a7.48,7.48,0,0,0,5.81,2.59,2.64,2.64,0,0,0,1.47-.32,6.43,6.43,0,0,1-3.16-4.94l-.61-.38-.23-.14-.88-.59-.19-.14L45.68,79l-.3-.24-.54-.42L44.5,78,44,77.6l-.34-.3-.46-.42-.34-.33-.44-.43-.34-.35-.23-.23A10.49,10.49,0,0,0,44.12,83.35Z"/>
  <path d="M79.3,79.43l.3-.3.12.41a7.64,7.64,0,0,0,7,4.9c2.62,0,3.86-1.15,4.44-2.12a3.6,3.6,0,0,0,.5-2.57,3.26,3.26,0,0,1-2.81-.47,4.29,4.29,0,0,1-1.56-3.5,9,9,0,0,1,.91-4,9.14,9.14,0,0,1-1.36-5c0-.22,0-.39,0-.51v-11c0-1.87-.05-6.25,2.13-8.22a4.1,4.1,0,0,1,3.2-1,4.12,4.12,0,0,0-.44-3.56,4.8,4.8,0,0,0-4.22-1.81c-1.94,0-5.23.91-6.1,2.85l-.2.44L81,43.52c-1.73-3-6.17-8-16.45-8a13.41,13.41,0,0,0-10.21,4.05,12.86,12.86,0,0,0-3.29,8.75c0,5.59,3.54,11.24,10.31,11.24a9.78,9.78,0,0,0,7.28-2.69,8.3,8.3,0,0,0,2.24-5.8c0-3.59-2.18-7.4-6.21-7.4-2.62,0-3.63,1.3-4,2.08a3.13,3.13,0,0,0,0,2.85,3.54,3.54,0,0,1,1.67-.41c1.72,0,2.74,1.71,2.74,3.37a3.68,3.68,0,0,1-1,2.6,4.5,4.5,0,0,1-3.32,1.2c-4.08,0-6.52-4.18-6.52-8.23,0-4.24,2.7-9.18,10.3-9.18,7.32,0,11.69,6.33,11.69,16.93,0,.24,0,5,0,5.9h0v2.68l-.3-.06a3.58,3.58,0,0,0-3.09.56,2,2,0,0,0-.7,1.66,5.74,5.74,0,0,1,2.5,5.32,10.13,10.13,0,0,1-5.88,8.48c0,.33,0,.66-.06,1,0,0,0,.06,0,.08,0,.38-.09.76-.15,1.14,0,.12,0,.24-.07.37s-.1.51-.16.76-.08.28-.11.43-.08.31-.12.46C73,82.82,77.67,81.06,79.3,79.43Z"/>
  <path d="M50.8,74.35h0l-.16-.23a30.15,30.15,0,0,1-3.69-7.55l-.06-.19h0c-2.91-8.62-3.23-18.66-3.23-22.6,0-10.75,2.71-19.85,7.84-26.31,4.17-5.26,9.89-8.63,15.67-9.24,5.15-.55,9.42,1.1,11.72,4.51a9.06,9.06,0,0,1,.68,9.2,7.7,7.7,0,0,1-7.2,4c-4.16,0-5.75-2-6.33-3.27a4.75,4.75,0,0,1,0-4.23h0a7,7,0,0,0-6.23,3.13,6.13,6.13,0,0,0-.14,6.2c.83,1.48,3,4,8.54,4,5.26,0,14.88-2,20.53-15.15h0a2.3,2.3,0,0,1,0-4.59,2.27,2.27,0,0,1,1.48.55A24.87,24.87,0,0,0,91.26,6,6.15,6.15,0,0,0,89,.89,4.34,4.34,0,0,0,85.36.11a3.68,3.68,0,0,1-.57,2.63,5.14,5.14,0,0,1-4,1.85,49.23,49.23,0,0,1-5.66.15,66,66,0,0,0-8.66.33C49.26,6.89,37.1,17.71,32.28,35.57l-.07.25c-.63,2.76-2,8.58-4.94,12.24,2.57,2.41,5.14,9.22,6,11.49l.18.48h0l0,.09A40.78,40.78,0,0,0,41.86,74.8a29.9,29.9,0,0,0,6.75,5.53,27.46,27.46,0,0,0,13.94,3.83c.05-.17.1-.35.14-.52s0-.17.07-.26c.06-.3.12-.59.15-.9,0,0,0-.1,0-.15,0-.26,0-.51.06-.77,0-.11,0-.22,0-.33s0-.32,0-.48h-.34C57.84,80.75,53.87,78.6,50.8,74.35Z"/>
</svg>
